# File created by Blade
# Date/Time:  Thu Jan 22 16:53:03 2015
#---------------------------------------------------------
:version 1.10
:name HOM
:units
  mass 1.0
  length 1.000000
  angle deg
:documentation
     Acclaim Skeleton File
:root
   axis xyz
   order TX TY TZ RX RY RZ
   position 0.000000 0.000000 0.000000
   orientation 0 0 0
:bonedata
   begin
      id 1
      name RightUpLeg_dum
      direction -1.000000 0.000000 0.000000
      length 3.766986
      axis 0.0 0.0 0.0 xyz
   end
   begin
      id 2
      name LeftUpLeg_dum
      direction 1.000000 0.000000 0.000000
      length 3.766986
      axis 0.0 0.0 0.0 xyz
   end
   begin
      id 3
      name Spine_dum
      direction 0.000000 1.000000 0.000000
      length 7.779697
      axis 0.0 0.0 0.0 xyz
   end
   begin
      id 4
      name RightUpLeg
      direction 0.000000 -1.000000 0.000000
      length 18.017682
      axis 0.0 0.0 0.0 xyz
      dof rx ry rz
   end
   begin
      id 5
      name RightLeg
      direction 0.000000 -1.000000 0.000000
      length 16.881075
      axis 0.0 0.0 0.0 xyz
      dof rx ry rz
   end
   begin
      id 6
      name RightFoot
      direction 0.000000 -0.258819 0.965926
      length 5.770812
      axis 15.0 0.0 0.0 xyz
      dof rx ry rz
   end
   begin
      id 7
      name RightToeBase
      direction 0.000000 0.000000 1.000000
      length 2.952750
      axis 0.0 0.0 0.0 xyz
      dof rx ry rz
   end
   begin
      id 8
      name LeftUpLeg
      direction 0.000000 -1.000000 0.000000
      length 18.017682
      axis 0.0 0.0 0.0 xyz
      dof rx ry rz
   end
   begin
      id 9
      name LeftLeg
      direction 0.000000 -1.000000 0.000000
      length 16.881075
      axis 0.0 0.0 0.0 xyz
      dof rx ry rz
   end
   begin
      id 10
      name LeftFoot
      direction 0.000000 -0.258819 0.965926
      length 5.770812
      axis 15.0 0.0 0.0 xyz
      dof rx ry rz
   end
   begin
      id 11
      name LeftToeBase
      direction 0.000000 0.000000 1.000000
      length 2.952750
      axis 0.0 0.0 0.0 xyz
      dof rx ry rz
   end
   begin
      id 12
      name Spine
      direction 0.000000 1.000000 0.000000
      length 0.000000
      axis 0.0 0.0 0.0 xyz
      dof rx ry rz
   end
   begin
      id 13
      name Spine_dum1
      direction 0.000000 1.000000 0.000000
      length 10.941760
      axis 0.0 0.0 0.0 xyz
   end
   begin
      id 14
      name Spine_dum2
      direction 0.000000 1.000000 0.000000
      length 10.941760
      axis 0.0 0.0 0.0 xyz
   end
   begin
      id 15
      name Spine_dum3
      direction 0.000000 1.000000 0.000000
      length 16.646042
      axis 0.0 0.0 0.0 xyz
   end
   begin
      id 16
      name RightShoulder
      direction -1.000000 0.000000 0.000000
      length 7.708937
      axis 0.0 0.0 90.0 xyz
      dof rx ry rz
   end
   begin
      id 17
      name RightArm
      direction -1.000000 0.000000 0.000000
      length 11.521345
      axis 0.0 0.0 90.0 xyz
      dof rx ry rz
   end
   begin
      id 18
      name RightForeArm
      direction -1.000000 0.000000 0.000000
      length 10.175898
      axis 0.0 0.0 90.0 xyz
      dof ry rz rx
   end
   begin
      id 19
      name RightHand
      direction -1.000000 0.000000 0.000000
      length 0.000000
      axis 0.0 0.0 90.0 xyz
      dof rx ry rz
   end
   begin
      id 20
      name RightHand_dum1
      direction -1.000000 0.000000 0.000000
      length 3.937000
      axis 0.0 0.0 90.0 xyz
   end
   begin
      id 21
      name RightHand_dum2
      direction 0.000000 0.000000 0.000000
      length 0.000000
      axis 0.0 0.0 90.0 xyz
   end
   begin
      id 22
      name RightHandThumb1
      direction 0.000000 0.000000 1.000000
      length 3.937000
      axis 0.0 0.0 90.0 xyz
      dof rx rz ry
   end
   begin
      id 23
      name LeftShoulder
      direction 1.000000 0.000000 0.000000
      length 7.708937
      axis 0.0 0.0 -90.0 xyz
      dof rx ry rz
   end
   begin
      id 24
      name LeftArm
      direction 1.000000 0.000000 0.000000
      length 11.521345
      axis 0.0 0.0 -90.0 xyz
      dof rx ry rz
   end
   begin
      id 25
      name LeftForeArm
      direction 1.000000 0.000000 0.000000
      length 10.175898
      axis 0.0 0.0 -90.0 xyz
      dof ry rz rx
   end
   begin
      id 26
      name LeftHand
      direction 1.000000 0.000000 0.000000
      length 0.000000
      axis 0.0 0.0 -90.0 xyz
      dof rx ry rz
   end
   begin
      id 27
      name LeftHand_dum1
      direction 1.000000 0.000000 0.000000
      length 3.937000
      axis 0.0 0.0 -90.0 xyz
   end
   begin
      id 28
      name LeftHand_dum2
      direction 0.000000 0.000000 0.000000
      length 0.000000
      axis 0.0 0.0 -90.0 xyz
   end
   begin
      id 29
      name LeftHandThumb1
      direction 0.000000 0.000000 1.000000
      length 3.937000
      axis 0.0 0.0 -90.0 xyz
      dof rx rz ry
   end
   begin
      id 30
      name Head
      direction 0.000000 1.000000 0.000000
      length 4.527550
      axis 0.0 0.0 0.0 xyz
      dof rx ry rz
   end
:hierarchy
   begin
      root RightUpLeg_dum LeftUpLeg_dum Spine_dum
      RightUpLeg_dum RightUpLeg
      LeftUpLeg_dum LeftUpLeg
      Spine_dum Spine
      RightUpLeg RightLeg
      RightLeg RightFoot
      RightFoot RightToeBase
      LeftUpLeg LeftLeg
      LeftLeg LeftFoot
      LeftFoot LeftToeBase
      Spine Spine_dum1 Spine_dum2 Spine_dum3
      Spine_dum1 RightShoulder
      Spine_dum2 LeftShoulder
      Spine_dum3 Head
      RightShoulder RightArm
      RightArm RightForeArm
      RightForeArm RightHand
      RightHand RightHand_dum1 RightHand_dum2
      RightHand_dum2 RightHandThumb1
      LeftShoulder LeftArm
      LeftArm LeftForeArm
      LeftForeArm LeftHand
      LeftHand LeftHand_dum1 LeftHand_dum2
      LeftHand_dum2 LeftHandThumb1
   end

# File created by Blade
# Date/Time:  Thu Jan 22 16:52:56 2015
# Frame Rate: 120.000 fps
#------------------------------------------------------
:FULLY-SPECIFIED
:DEGREES
513
root 2.995273 3.917535 -2.770566 -60.457914 -3.570715 2.128178
RightUpLeg -47.013252 -11.581449 -31.733564
RightLeg 39.052654 -0.000000 -0.000000
RightFoot -2.623965 -19.908630 15.463107
RightToeBase 1.524649 -0.000000 -0.000000
LeftUpLeg -81.789416 16.369798 12.805417
LeftLeg 125.883274 -0.000000 -0.000000
LeftFoot 12.405872 3.475655 -13.922038
LeftToeBase 9.532513 -0.000000 -0.000000
Spine 71.280608 8.770218 -4.633502
RightShoulder 11.880078 -19.541565 -31.675049
RightArm 23.705594 -30.032830 67.523969
RightForeArm 93.145987 -0.000000 58.978608
RightHand 0.293826 0.000000 -10.672272
RightHandThumb1 -24.326973 -0.000000 -32.862282
LeftShoulder -19.186078 54.014482 9.357577
LeftArm 29.661034 26.191685 -80.015766
LeftForeArm -18.524783 -0.000000 75.376001
LeftHand -41.741411 -0.000000 49.939328
LeftHandThumb1 -26.253704 0.000000 33.147579
Head 18.876697 3.170785 -22.798150
514
root 3.025313 3.886629 -2.760615 -60.655374 -3.645653 1.949874
RightUpLeg -46.427304 -11.843128 -31.836886
RightLeg 38.591589 -0.000000 -0.000000
RightFoot -2.568405 -20.037575 15.456531
RightToeBase 1.489779 -0.000000 -0.000000
LeftUpLeg -81.786934 16.154521 12.885511
LeftLeg 125.853146 -0.000000 -0.000000
LeftFoot 12.497975 3.785849 -14.074641
LeftToeBase 10.054192 -0.000000 -0.000000
Spine 70.979538 8.587318 -4.727298
RightShoulder 11.705533 -20.233498 -31.335585
RightArm 23.041224 -29.613181 67.299948
RightForeArm 92.572623 0.000000 60.442130
RightHand 0.681987 0.000000 -9.713851
RightHandThumb1 -24.326973 -0.000000 -32.862282
LeftShoulder -19.834995 54.431034 8.568397
LeftArm 29.649899 26.072535 -79.946580
LeftForeArm -18.173603 -0.000000 76.045454
LeftHand -41.959891 -0.000000 50.311374
LeftHandThumb1 -26.253704 0.000000 33.147579
Head 20.678681 3.397465 -22.906994
515
root 3.037632 3.861507 -2.765964 -60.940638 -3.856815 1.885230
RightUpLeg -45.798866 -11.714522 -31.933329
RightLeg 38.022960 -0.000000 -0.000000
RightFoot -2.444062 -20.277169 15.788008
RightToeBase 1.495317 -0.000000 -0.000000
LeftUpLeg -81.600681 16.126691 13.100468
LeftLeg 125.726869 -0.000000 -0.000000
LeftFoot 12.721940 4.084370 -14.139319
LeftToeBase 10.336746 -0.000000 -0.000000
Spine 70.842486 8.545833 -4.819667
RightShoulder 11.533577 -20.738011 -31.130884
RightArm 22.194247 -29.197560 67.330365
RightForeArm 91.436397 -0.000000 62.051135
RightHand 0.876109 -0.000000 -8.626857
RightHandThumb1 -24.326973 -0.000000 -32.862282
LeftShoulder -20.626532 54.763496 7.759076
LeftArm 29.649177 25.990797 -79.896991
LeftForeArm -17.870298 -0.000000 76.673360
LeftHand -42.176320 0.000000 50.547206
LeftHandThumb1 -26.253704 0.000000 33.147579
Head 22.142976 3.809967 -22.764374
516
root 3.067342 3.840640 -2.774004 -61.203095 -3.924720 1.652773
RightUpLeg -45.007858 -11.755659 -32.129026
RightLeg 37.417686 -0.000000 -0.000000
RightFoot -2.210950 -20.442521 15.958703
RightToeBase 1.551831 -0.000000 -0.000000
LeftUpLeg -81.468555 15.807480 13.250493
LeftLeg 125.498517 -0.000000 -0.000000
LeftFoot 12.942774 4.502454 -14.594020
LeftToeBase 10.720872 -0.000000 -0.000000
Spine 70.756947 8.248205 -4.927787
RightShoulder 11.287679 -21.221787 -30.855303
RightArm 21.239495 -28.841983 67.225016
RightForeArm 90.100388 -0.000000 63.903850
RightHand 1.249740 -0.000000 -7.905808
RightHandThumb1 -24.326973 -0.000000 -32.862282
LeftShoulder -21.353196 55.029407 6.977429
LeftArm 29.605020 25.902019 -79.966998
LeftForeArm -17.568391 -0.000000 77.230700
LeftHand -42.449281 -0.000000 50.783961
LeftHandThumb1 -26.253704 0.000000 33.147579
Head 23.537832 4.098954 -22.901509
517
root 3.084160 3.812860 -2.778676 -61.378149 -4.052955 1.436111
RightUpLeg -44.345255 -11.709640 -32.279985
RightLeg 36.865633 -0.000000 -0.000000
RightFoot -2.023584 -20.594267 16.236524
RightToeBase 1.753067 -0.000000 -0.000000
LeftUpLeg -81.435693 15.597703 13.436054
LeftLeg 125.215801 -0.000000 -0.000000
LeftFoot 13.237212 4.920211 -14.850183
LeftToeBase 10.947645 -0.000000 -0.000000
Spine 70.554483 7.988003 -4.965016
RightShoulder 11.055769 -21.997183 -30.669877
RightArm 20.491181 -28.457243 67.070737
RightForeArm 88.462856 0.000000 65.795280
RightHand 1.768958 -0.000000 -7.232982
RightHandThumb1 -24.326973 -0.000000 -32.862282
LeftShoulder -21.968056 55.315048 6.285406
LeftArm 29.604728 25.845201 -79.960166
LeftForeArm -17.299573 -0.000000 77.721720
LeftHand -42.656551 -0.000000 51.460884
LeftHandThumb1 -26.253704 0.000000 33.147579
Head 24.853513 4.516390 -22.748796
518
root 3.100551 3.792050 -2.787395 -61.568261 -4.140642 1.234623
RightUpLeg -43.650898 -11.598258 -32.483629
RightLeg 36.327821 -0.000000 -0.000000
RightFoot -1.792962 -20.771880 16.424865
RightToeBase 1.798986 -0.000000 -0.000000
LeftUpLeg -81.336069 15.389517 13.598216
LeftLeg 124.817113 -0.000000 -0.000000
LeftFoot 13.617762 5.340013 -15.277912
LeftToeBase 10.720694 -0.000000 -0.000000
Spine 70.421124 7.731126 -5.063731
RightShoulder 10.769463 -22.833950 -30.413658
RightArm 19.745603 -27.955223 66.946347
RightForeArm 86.441176 -0.000000 67.793593
RightHand 1.795781 -0.000000 -6.755245
RightHandThumb1 -24.326973 -0.000000 -32.862282
LeftShoulder -22.626244 55.600999 5.577739
LeftArm 29.673716 25.783498 -79.920664
LeftForeArm -17.129045 0.000000 78.165871
LeftHand -42.766112 -0.000000 52.091283
LeftHandThumb1 -26.253704 0.000000 33.147579
Head 26.001283 4.845123 -22.605269
519
root 3.104217 3.775766 -2.799661 -61.753893 -4.222595 1.133771
RightUpLeg -43.043739 -11.345407 -32.720156
RightLeg 35.853652 -0.000000 -0.000000
RightFoot -1.621353 -20.940390 16.554576
RightToeBase 1.937444 -0.000000 -0.000000
LeftUpLeg -81.162893 15.313541 13.765393
LeftLeg 124.289660 -0.000000 -0.000000
LeftFoot 14.141202 5.784863 -15.695862
LeftToeBase 9.273852 -0.000000 -0.000000
Spine 70.307607 7.657404 -5.181512
RightShoulder 10.456452 -23.694482 -30.109900
RightArm 18.855610 -27.481685 66.921670
RightForeArm 84.183008 -0.000000 69.940427
RightHand 2.402818 -0.000000 -6.326366
RightHandThumb1 -24.326973 -0.000000 -32.862282
LeftShoulder -23.028848 55.783494 5.182611
LeftArm 29.632185 25.722074 -79.932557
LeftForeArm -16.978540 -0.000000 78.576620
LeftHand -42.872452 0.000000 52.444905
LeftHandThumb1 -26.253704 0.000000 33.147579
Head 27.022585 5.083400 -22.272901
520
root 3.114457 3.767916 -2.816322 -61.966076 -4.196919 1.003760
RightUpLeg -42.346760 -11.156674 -33.027599
RightLeg 35.383088 -0.000000 -0.000000
RightFoot -1.417285 -20.992449 16.516069
RightToeBase 1.936117 -0.000000 -0.000000
LeftUpLeg -80.922601 15.134239 13.846861
LeftLeg 123.631152 -0.000000 -0.000000
LeftFoot 14.592439 6.281925 -16.224131
LeftToeBase 7.911605 -0.000000 -0.000000
Spine 70.279829 7.553995 -5.340104
RightShoulder 10.068712 -24.641724 -29.710855
RightArm 18.146492 -27.095179 66.729939
RightForeArm 81.017801 -0.000000 72.135691
RightHand 3.032057 0.000000 -6.875641
RightHandThumb1 -24.326973 -0.000000 -32.862282
LeftShoulder -23.284313 55.957051 4.982655
LeftArm 29.629306 25.704831 -79.963800
LeftForeArm -16.863179 -0.000000 78.924805
LeftHand -42.917770 -0.000000 52.912012
LeftHandThumb1 -26.253704 0.000000 33.147579
Head 27.900881 5.151726 -21.884067
521
root 3.115696 3.758972 -2.832738 -62.130466 -4.240086 0.936116
RightUpLeg -41.766549 -10.862838 -33.269476
RightLeg 34.933435 -0.000000 -0.000000
RightFoot -1.246277 -21.088072 16.442708
RightToeBase 1.892678 -0.000000 -0.000000
LeftUpLeg -80.665404 15.098855 13.997234
LeftLeg 122.843002 -0.000000 -0.000000
LeftFoot 15.133497 6.845607 -16.793248
LeftToeBase 6.169441 -0.000000 -0.000000
Spine 70.216148 7.524841 -5.419186
RightShoulder 9.714983 -25.501611 -29.389987
RightArm 17.269605 -26.737368 66.778633
RightForeArm 77.552633 -0.000000 74.206047
RightHand 3.238522 -0.000000 -7.011984
RightHandThumb1 -24.326973 -0.000000 -32.862282
LeftShoulder -23.384071 56.054222 4.872859
LeftArm 29.581927 25.692133 -79.935855
LeftForeArm -16.781405 -0.000000 79.247165
LeftHand -43.226895 -0.000000 52.964958
LeftHandThumb1 -26.253704 0.000000 33.147579
Head 28.691086 5.169224 -21.568450
